**ABCDEFGHIJKLMNOPQRSTUVWXYZabcdefghijklmnopqrstuvwxyz**************************
**PARASOLID !"#$%&'()*+,-./:;<=>?@[\]^_`{|}~0123456789**************************
**PART1;
MC=unknown;
MC_MODEL=unknown;
MC_ID=unknown;
OS=unknown;
OS_RELEASE=unknown;
FRU=Parasolid 31.0.249;
APPL=Onshape;
SITE=unknown;
USER=unknown;
FORMAT=text;
GUISE=transmit;
KEY=BTGapi::writeModels_.xmt;
FILE=BTGapi::writeModels_.xmt;
DATE=2018-12-31T20:46:08 (UTC);
**PART2;
SCH=SCH_3100249_31001;
USFLD_SIZE=0;
**PART3;
**END_OF_HEADER*****************************************************************
T51 : TRANSMIT FILE created by modeller version 310024923 SCH_3100249_31001_1300
6215 0 12 34 CCCCCCI4 mesh1006 0 I8 polyline1008 0 CCCCCCCDI5 owner1040 0 CCCCCC
I13 boundary_mesh1006 0 I17 boundary_polyline1008 0 CCCA16 index_map_offset0 0 1
 dA9 index_map82 0 A17 node_id_index_map82 0 A20 schema_embedding_map82 0 A5 chi
ld12 0 A14 lowest_node_id0 0 1 dA16 mesh_offset_data206 0 Z1 2622 2 3 0 0 0 0 0
 0 1e3 1e-8 0 4 5 1 0 1 1 6 7 8 9 0 0 10 11 12 0 0 0 0 0 0 0 81 255 1 2 2578 13
 1 14 0 0 0 15 70 11 CI9 list_type0 0 1 uI10 notransmit0 0 1 lCCCDCCDI12 finger_
index0 0 1 dI12 finger_block1012 0 CZ3 0 4 T1 0 0 5 20 1 16 16 13 255 6 360 0 1
 0 17 0 0 18 0 54 255 7 1844 0 19 20 0 0 +.048861365377903 .0520083654224873 -.0
01 0 0 1 .0095 .001 1 0 0 31 255 8 1793 0 21 22 0 0 +.005 .067 -.001 -1 0 433680
8689942015e-30 4336808689942015e-30 0 1 .001 29 255 9 2274 0 12 23 0 .0655844584
107399 .066 .02907239612936975 19 8 CCCCCCCA5 owner12 0 Z10 359 0 1 18 0 24 V0 1
6 255 11 1703 25 ?26 0 27 28 0 0 1 18 255 12 2272 29 30 0 31 9 ?1 81 1 29 2545 3
2 12 0 0 33 34 35 17 255 30 0 36 37 38 12 39 40 0 41 -18 31 1694 42 26 12 43 23
 ?1 81 1 42 1896 32 31 0 0 44 45 46 17 26 0 47 48 49 31 50 11 0 51 +18 43 1685 5
2 53 31 54 55 ?1 29 23 1697 0 31 55 9 .144 .005 -.001 29 55 1688 0 43 56 23 .144
 .063 -.001 29 56 1679 0 54 57 55 .139 .068 -.001 18 54 1676 58 59 43 60 56 ?1 2
9 57 1670 0 60 61 56 .005 .068 -.001 18 60 1667 62 63 54 64 57 ?1 29 61 1661 0 6
4 65 57 0 .063 -.001 18 64 1658 66 67 60 68 61 ?1 29 65 1640 0 68 69 61 95409791
1787244e-32 .005 -.001 18 68 1637 70 71 64 72 65 ?1 29 69 1618 0 72 73 65 .005 .
001 -.002 18 72 1616 74 75 68 76 69 ?1 29 73 1614 0 76 77 69 .001 .005 -.002 18
 76 1612 78 79 72 80 73 ?1 29 77 1610 0 80 81 73 .000999999999999983 .063 -.002
 18 80 1608 82 83 76 84 77 ?1 29 81 1606 0 84 85 77 .005 .067 -.002 18 84 1604 8
6 87 80 88 81 ?1 29 85 1602 0 88 89 81 .139 .067 -.002 18 88 1600 90 91 84 92 85
 ?1 29 89 1598 0 92 93 85 .143 .063 -.002 18 92 1596 45 94 88 95 89 ?1 29 93 159
4 0 95 96 89 .139 .001 -.002 18 95 1592 97 98 92 99 93 ?1 29 96 1591 0 99 100 93
 .143 .005 -.002 18 99 1589 44 101 95 102 96 ?1 29 100 1583 0 102 103 96 .005 0
 -.001 18 102 1580 104 105 99 106 100 ?1 29 103 1579 0 106 107 100 .139 95409791
1787244e-32 -.001 18 106 1576 108 109 102 110 103 ?1 29 107 828 0 110 111 103 .0
02 .03944857356114275 0 18 110 826 112 113 106 114 107 ?1 29 111 825 0 114 115 1
07 .002 .006 0 18 114 823 116 117 110 118 111 ?1 29 115 822 0 118 119 111 .006 .
002 0 18 118 820 120 121 114 122 115 ?1 29 119 819 0 122 123 115 .138 .002 0 18
 122 817 124 125 118 126 119 ?1 29 123 816 0 126 127 119 .142 .006 0 18 126 814
 128 129 122 130 123 ?1 29 127 813 0 130 131 123 .142 .0303377223398316 0 18 130
 811 132 133 126 134 127 ?1 29 131 810 0 134 135 127 .142 .0366622776601684 0 18
 134 808 136 137 130 138 131 ?1 29 135 807 0 138 139 131 .142 .062 0 18 138 805
 140 141 134 142 135 ?1 29 139 804 0 142 143 135 .138 .066 0 18 142 802 144 145
 138 146 139 ?1 29 143 801 0 146 147 139 .006 .066 0 18 146 799 148 149 142 150
 143 ?1 29 147 795 0 150 151 143 .002 .0457731288814795 0 18 150 793 152 153 146
 154 147 ?1 29 151 1403 0 155 156 147 .002 .062 0 18 155 1142 157 158 159 160 15
1 ?1 29 156 1416 0 154 161 151 0 .063 .03 18 154 1188 162 163 150 164 156 ?1 29
 161 1417 0 164 165 156 .005 .068 .03 18 164 1176 166 167 154 168 161 ?1 29 165
 1418 0 168 169 161 .139 .068 .03 18 168 1198 170 171 164 172 165 ?1 29 169 1419
 0 172 173 165 .144 .063 .03 18 172 1196 174 175 168 176 169 ?1 29 173 1420 0 17
6 177 169 .142 .062 .03 18 176 1146 178 179 172 180 173 ?1 29 177 1421 0 180 181
 173 .138 .066 .03 18 180 1182 182 183 176 184 177 ?1 29 181 1422 0 184 185 177
 .006 .066 .03 18 184 1140 186 187 180 188 181 ?1 29 185 1423 0 188 189 181 .002
 .062 .03 18 188 1180 190 191 184 192 185 ?1 29 189 1424 0 192 193 185 .002 .006
 .03 18 192 1168 194 195 188 196 189 ?1 29 193 1425 0 196 197 189 .006 .002 .03
 18 196 1164 198 199 192 200 193 ?1 29 197 1426 0 200 201 193 .138 .002 .03 18 2
00 1160 202 203 196 204 197 ?1 29 201 1427 0 204 205 197 .142 .006 .03 18 204 11
56 206 207 200 208 201 ?1 29 205 1428 0 208 209 201 .144 .005 .03 18 208 1194 21
0 48 204 211 205 ?1 29 209 1429 0 211 212 205 .139 954097911787244e-32 .03 18 21
1 1192 213 214 208 215 209 ?1 29 212 1430 0 215 216 209 .005 0 .03 18 215 1190 2
17 218 211 219 212 ?1 29 216 1431 0 219 220 212 954097911787244e-32 .005 .03 18
 219 1124 221 222 215 223 216 ?1 29 220 1432 0 223 224 216 .142 .036662277660168
4 .03 18 223 1150 225 226 219 227 220 ?1 29 224 1433 0 227 228 220 .142 .0303377
223398316 .03 18 227 1184 229 230 223 231 224 ?1 29 228 1434 0 231 232 224 .002
 .0457731288814795 .03 18 231 1138 233 234 227 159 228 ?1 29 232 1435 0 159 235
 228 .002 .03944857356114275 .03 18 159 1186 236 237 231 155 232 ?1 29 235 2522
 0 160 238 232 .0655844584107399 .066 .03 18 160 2456 33 239 155 240 235 ?1 29 2
38 2523 0 240 241 235 .0784155415892601 .066 .03 18 240 2438 34 242 160 243 238
 ?1 29 241 2525 0 243 244 238 .0675844584107399 .066 .0270723961293697 18 243 24
48 245 37 240 246 241 ?1 29 244 2526 0 246 247 241 .0784155415892601 .066 .02907
239612936975 18 246 2440 248 249 243 250 244 ?1 29 247 2527 0 250 251 244 .07641
55415892601 .066 .02707239612936975 18 250 2444 252 253 246 254 247 ?1 29 251 25
28 0 254 255 247 .0784155415892601 .068 .03 18 254 2460 256 257 250 258 251 ?1 2
9 255 2529 0 258 259 251 .0655844584107399 .068 .03 18 258 2458 260 261 254 262
 255 ?1 29 259 2530 0 262 263 255 .0655844584107399 .068 .02907239612936975 18 2
62 2454 264 39 258 265 259 ?1 29 263 2531 0 265 266 259 .0675844584107399 .068 .
0270723961293697 18 265 2450 267 268 262 269 263 ?1 29 266 2532 0 269 270 263 .0
764155415892601 .068 .02707239612936975 18 269 2446 271 272 265 273 266 ?1 29 27
0 2533 0 273 0 266 .0784155415892601 .068 .02907239612936975 18 273 2442 274 275
 269 0 270 ?1 81 1 274 2540 32 273 0 0 260 256 276 17 275 0 277 278 249 273 279
 280 0 281 +15 255 277 2473 0 249 282 0 17 278 0 277 283 275 269 284 285 0 286 +
17 249 0 277 275 283 246 287 288 0 279 +17 279 0 289 242 281 246 275 280 0 290 -
16 280 2381 291 ?275 292 293 294 0 0 1 17 281 0 289 279 257 273 295 296 0 284 -1
5 289 2469 0 257 297 0 17 257 0 289 281 242 254 298 299 0 295 +17 295 0 300 171
 284 254 281 296 0 301 +16 296 2384 302 ?295 285 0 303 0 0 1 17 284 0 300 295 28
6 273 278 285 0 0 -15 300 2301 0 284 304 0 17 286 0 300 284 305 269 306 307 0 0
 +16 285 2418 308 ?278 307 296 309 0 0 1 81 1 308 2560 32 285 0 0 310 311 312 16
 307 2400 313 ?286 314 285 315 0 0 1 31 309 2520 0 285 303 315 0 +.0764155415892
601 .068 .02907239612936975 0 1 0 0 0 1 .002 30 255 303 2521 0 296 0 309 0 +.078
4155415892601 .068 .02953619806468485 0 0 1 30 315 2519 0 307 309 316 0 +.072 .0
68 .02707239612936975 1 0 0 31 316 2518 0 314 315 317 0 +.0675844584107399 .068
 .02907239612936975 0 1 0 0 0 1 .002 16 314 2423 318 ?38 319 307 316 0 0 1 30 31
7 2517 0 319 316 320 0 +.0655844584107399 .068 .02953619806468485 0 0 1 16 319 2
428 321 ?261 299 314 317 0 0 1 30 320 2515 0 299 317 322 0 +.0784155415892601 .0
65998 .03 0 1 0 16 299 2413 323 ?257 324 319 320 0 0 1 30 322 2514 0 324 320 325
 0 +.0655844584107399 .065998 .03 0 1 0 16 324 2408 326 ?327 40 299 322 0 0 1 30
 325 2513 0 40 322 328 0 +.0655844584107399 .065998 .02907239612936975 0 1 0 16
 40 2405 329 ?39 330 324 325 0 0 1 30 328 2512 0 330 325 331 0 +.067584458410739
9 .065998 .0270723961293697 0 1 0 16 330 2397 332 ?268 293 40 328 0 0 1 30 331 2
511 0 293 328 294 0 +.0764155415892601 .065998 .02707239612936975 0 1 0 16 293 2
389 333 ?272 280 330 331 0 0 1 30 294 2510 0 280 331 334 0 +.0784155415892601 .0
65998 .02907239612936975 0 1 0 30 334 2508 0 335 294 336 0 +.0655844584107399 .0
66 .02953619806468485 0 0 -1 16 335 2361 337 ?41 338 339 334 0 0 1 31 336 2507 0
 339 334 340 0 -.0675844584107399 .066 .02907239612936975 0 1 0 0 0 1 .002 16 33
9 2366 341 ?37 335 288 336 0 0 1 30 340 2506 0 292 336 342 0 +.072 .066 .0270723
9612936975 -1 0 0 16 292 2392 343 ?344 345 280 340 0 0 1 31 342 2505 0 288 340 3
46 0 -.0764155415892601 .066 .02907239612936975 0 1 0 0 0 1 .002 16 288 2371 311
 ?249 339 345 342 0 0 1 30 346 2504 0 345 342 347 0 +.0784155415892601 .066 .029
53619806468485 0 0 -1 16 345 2376 310 ?290 288 292 346 0 0 1 31 347 1395 0 348 3
46 349 0 +.0035 .0426108512213111 .03 0 0 1 1 0 0 .0013 16 348 1025 350 ?351 352
 353 347 0 0 1 31 349 1394 0 352 347 354 0 +.0035 .0426108512213111 .03 0 0 1 1
 0 0 .0035 16 352 1034 355 ?356 357 348 349 0 0 1 31 354 1393 0 357 349 358 0 +.
1405 .0335 .03 0 0 1 1 0 0 .0013 16 357 1014 359 ?360 361 352 354 0 0 1 31 358 1
392 0 361 354 362 0 +.1405 .0335 .03 0 0 1 1 0 0 .0035 16 361 1043 363 ?230 364
 357 358 0 0 1 30 362 1391 0 364 358 365 0 +0 .02380542561065555 .03 0 1 0 16 36
4 894 366 ?367 368 361 362 0 0 1 31 365 1390 0 368 362 369 0 +.005 .005 .03 0 0
 1 1 0 0 .005 16 368 1052 370 ?371 372 364 365 0 0 1 30 369 1389 0 372 365 373 0
 +.072 0 .03 1 0 0 16 372 1055 374 ?375 376 368 369 0 0 1 31 373 1388 0 376 369
 377 0 +.139 .005 .03 0 0 1 1 0 0 .005 16 376 1058 378 ?379 380 372 373 0 0 1 30
 377 1387 0 380 373 381 0 +.144 .01925 .03 0 1 0 16 380 1061 382 ?383 384 376 37
7 0 0 1 30 381 1386 0 384 377 385 0 +.142 .0181688611699158 .03 0 1 0 16 384 990
 386 ?387 388 380 381 0 0 1 31 385 1385 0 388 381 389 0 +.138 .006 .03 0 0 1 1 0
 0 .004 16 388 996 390 ?391 392 384 385 0 0 1 30 389 1384 0 392 385 393 0 +.072
 .002 .03 1 0 0 16 392 1002 394 ?395 396 388 389 0 0 1 31 393 1383 0 396 389 397
 0 +.006 .006 .03 0 0 1 1 0 0 .004 16 396 1008 398 ?399 400 392 393 0 0 1 30 397
 1382 0 400 393 401 0 +.002 .02272428678057135 .03 -1815184182614035e-31 1 0 16
 400 1046 402 ?237 403 396 397 0 0 1 30 401 1381 0 403 397 404 0 +.002 .05388656
44407397 .03 -187082652027386e-30 1 0 16 403 1037 405 ?191 406 400 401 0 0 1 31
 404 1380 0 406 401 407 0 +.006 .062 .03 0 0 1 1 0 0 .004 16 406 956 408 ?409 41
0 403 404 0 0 1 30 407 1379 0 411 404 412 0 +.072 .066 .03 1 0 0 16 411 1040 413
 ?414 415 410 407 410 410 1 31 412 1378 0 415 407 416 0 +.138 .062 .03 0 0 1 1 0
 0 .004 16 415 970 417 ?418 419 411 412 0 0 1 30 416 1377 0 419 412 420 0 +.142
 .0493311388300842 .03 0 1 0 16 419 976 421 ?422 423 415 416 0 0 1 31 420 1376 0
 423 416 424 0 +.139 .063 .03 0 0 1 1 0 0 .005 16 423 1064 425 ?426 427 419 420
 0 0 1 30 424 1375 0 428 420 429 0 +.072 .068 .03 1 0 0 16 428 1028 430 ?431 432
 427 424 427 427 1 31 429 1374 0 432 424 433 0 +.005 .063 .03 0 0 1 1 0 0 .005 1
6 432 1049 434 ?435 436 428 429 0 0 1 31 433 1373 0 437 429 438 0 +.0035 .042610
8512213111 0 0 0 1 1 0 0 .0013 16 437 1067 439 ?440 441 21 433 0 0 1 31 438 1372
 0 441 433 442 0 +.0035 .0426108512213111 0 0 0 1 1 0 0 .0035 16 441 940 443 ?44
4 445 437 438 0 0 1 31 442 1371 0 445 438 446 0 +.1405 .0335 0 0 0 1 1 0 0 .0013
 16 445 1107 447 ?448 449 441 442 0 0 1 31 446 1370 0 449 442 450 0 +.1405 .0335
 0 0 0 1 1 0 0 .0035 16 449 982 451 ?452 453 445 446 0 0 1 30 450 1364 0 453 446
 454 0 +.142 .0181688611699158 0 0 1 0 16 453 1087 455 ?133 456 449 450 0 0 1 31
 454 1363 0 456 450 457 0 +.138 .006 0 0 0 1 1 0 0 .004 16 456 1082 458 ?129 459
 453 454 0 0 1 30 457 1362 0 459 454 460 0 +.072 .002 0 1 0 0 16 459 1077 461 ?1
25 462 456 457 0 0 1 31 460 1361 0 462 457 463 0 +.006 .006 0 0 0 1 1 0 0 .004 1
6 462 1072 464 ?121 465 459 460 0 0 1 30 463 1360 0 465 460 466 0 +.002 .0227242
8678057135 0 -1815184182614035e-31 1 0 16 465 1017 467 ?468 469 462 463 0 0 1 30
 466 1359 0 469 463 470 0 +.002 .0538865644407397 0 -187082652027386e-30 1 0 16
 469 948 471 ?472 473 465 466 0 0 1 31 470 1358 0 473 466 474 0 +.006 .062 0 0 0
 1 1 0 0 .004 16 473 1102 475 ?158 476 469 470 0 0 1 30 474 1357 0 476 470 477 0
 +.072 .066 0 1 0 0 16 476 962 478 ?479 480 473 474 0 0 1 31 477 1356 0 480 474
 481 0 +.138 .062 0 0 0 1 1 0 0 .004 16 480 1097 482 ?145 353 476 477 0 0 1 30 4
81 1355 0 353 477 483 0 +.142 .0493311388300842 0 0 1 0 16 353 1092 484 ?141 348
 480 481 0 0 1 30 483 1347 0 485 481 486 0 +.142 .062 .03 0 0 -1 16 485 979 487
 ?488 489 490 483 0 0 1 30 486 1346 0 489 483 491 0 +.138 .066 .03 0 0 -1 16 489
 973 492 ?493 494 485 486 0 0 1 30 491 1345 0 494 486 495 0 +.006 .066 .03 0 0 -
1 16 494 967 496 ?497 498 489 491 0 0 1 30 495 1344 0 498 491 499 0 +.002 .062 .
03 0 0 -1 16 498 959 500 ?501 502 494 495 0 0 1 30 499 1343 0 503 495 504 0 +.00
2 .006 .03 0 0 -1 16 503 1022 505 ?506 507 436 499 0 0 1 30 504 1342 0 507 499 5
08 0 +.006 .002 .03 0 0 -1 16 507 1011 509 ?510 511 503 504 0 0 1 30 508 1341 0
 511 504 512 0 +.138 .002 .03 0 0 -1 16 511 1005 513 ?514 515 507 508 0 0 1 30 5
12 1340 0 515 508 516 0 +.142 .006 .03 0 0 -1 16 515 999 517 ?518 519 511 512 0
 0 1 30 516 1335 0 490 512 520 0 +.142 .0366622776601684 .03 0 0 -1 16 490 987 5
21 ?522 485 519 516 0 0 1 30 520 1334 0 519 516 523 0 +.142 .0303377223398316 .0
3 0 0 -1 16 519 993 524 ?525 490 515 520 0 0 1 30 523 1333 0 502 520 526 0 +.002
 .0457731288814795 .03 0 0 -1 16 502 953 527 ?528 529 498 523 0 0 1 30 526 1332
 0 436 523 530 0 +.002 .03944857356114275 .03 0 0 -1 16 436 945 531 ?532 503 432
 526 0 0 1 31 530 604 0 529 526 533 0 +.048861365377903 .0520083654224873 0 0 0
 1 1 0 0 .0085 16 529 539 534 ?535 536 502 530 0 0 1 31 533 603 0 536 530 537 0
 +.02186136537790295 .0520083654224873 0 0 0 1 1 0 0 .0085 16 536 535 538 ?539 5
40 529 533 0 0 1 30 537 660 0 541 533 542 0 +.144 .005 -.002 0 0 1 16 541 1695 5
43 ?48 544 545 537 0 0 1 30 542 661 0 544 537 546 0 +.139 954097911787244e-32 -.
002 0 0 1 16 544 1577 547 ?214 548 541 542 0 0 1 30 546 662 0 548 542 549 0 +.00
5 0 -.002 0 0 1 16 548 1581 550 ?218 551 544 546 0 0 1 30 549 663 0 551 546 552
 0 +954097911787244e-32 .005 -.002 0 0 1 16 551 1638 553 ?222 554 548 549 0 0 1
 30 552 664 0 540 549 555 0 +0 .063 -.002 0 0 1 16 540 1659 556 ?163 557 536 552
 0 0 1 30 555 665 0 557 552 558 0 +.005 .068 -.002 0 0 1 16 557 1668 559 ?167 56
0 540 555 0 0 1 30 558 666 0 560 555 561 0 +.139 .068 -.002 0 0 1 16 560 1677 56
2 ?563 545 557 558 0 0 1 30 561 667 0 545 558 564 0 +.144 .063 -.002 0 0 1 16 54
5 1686 565 ?175 541 560 561 0 0 1 30 564 1586 0 554 561 566 0 +.139 0 -.001 1 0
 0 16 554 1584 567 ?568 569 551 564 0 0 1 31 566 1595 0 569 564 570 0 -.139 .005
 -.002 0 0 1 1 0 0 .004 16 569 1593 571 ?98 572 554 566 0 0 1 30 570 1599 0 572
 566 573 0 -.143 .005 -.002 0 1 0 16 572 1597 574 ?101 575 569 570 0 0 1 31 573
 1603 0 575 570 576 0 -.139 .063 -.002 0 0 1 1 0 0 .004 16 575 1601 577 ?94 578
 572 573 0 0 1 30 576 1607 0 578 573 579 0 +.072 .067 -.002 1 0 0 16 578 1605 58
0 ?91 581 575 576 0 0 1 31 579 1611 0 581 576 582 0 -.005 .063 -.002 0 0 1 1 0 0
 .004 16 581 1609 583 ?87 584 578 579 0 0 1 30 582 1615 0 584 579 585 0 +.001 .0
34 -.002 0 1 0 16 584 1613 586 ?83 587 581 582 0 0 1 31 585 1619 0 587 582 588 0
 -.005 .005 -.002 0 0 1 1 0 0 .004 16 587 1617 589 ?79 590 584 585 0 0 1 30 588
 1622 0 590 585 591 0 -.005 .001 -.002 1 0 0 16 590 1620 592 ?593 594 587 588 0
 0 1 31 591 1628 0 594 588 595 0 +.048861365377903 .0520083654224873 -.002 0 0 1
 1 0 0 .0095 16 594 1625 596 ?597 598 590 591 0 0 1 31 595 1634 0 598 591 599 0
 +.02186136537790295 .0520083654224873 -.002 0 0 1 1 0 0 .0095 16 598 1631 600 ?
601 602 594 595 0 0 1 31 599 1643 0 602 595 603 0 +.005 .005 -.001 0 0 1 1 0 0 .
005 16 602 1641 604 ?105 605 598 599 0 0 1 31 603 1649 0 605 599 606 0 -.0218613
6537790295 .0520083654224873 -.001 0 0 1 1 0 0 .0085 16 605 1646 607 ?608 609 60
2 603 0 0 1 31 606 1655 0 609 603 610 0 -.048861365377903 .0520083654224873 -.00
1 0 0 1 1 0 0 .0085 16 609 1652 611 ?612 613 605 606 0 0 1 30 610 1664 0 613 606
 614 0 -0 .0528054256106556 -.001 0 1 0 16 613 1662 615 ?71 616 609 610 0 0 1 31
 614 1673 0 616 610 617 0 +.005 .063 -.001 0 0 1 1 0 0 .005 16 616 1671 618 ?67
 619 613 614 0 0 1 30 617 1682 0 619 614 620 0 -.072 .068 -.001 1 0 0 16 619 168
0 621 ?63 622 616 617 0 0 1 31 620 1691 0 622 617 623 0 +.139 .063 -.001 0 0 1 1
 0 0 .005 16 622 1689 624 ?59 27 619 620 0 0 1 30 623 1700 0 27 620 28 0 +.144 .
063 -.001 0 1 0 16 27 1698 625 ?53 11 622 623 0 0 1 31 28 1705 0 11 623 626 0 +.
139 .005 -.001 0 0 1 1 0 0 .005 31 626 1800 0 338 28 627 0 +.139 .001 -.001 -1 0
 0 0 0 1 .001 16 338 1768 628 ?109 629 335 626 0 0 1 31 627 1799 0 629 626 630 0
 +.005 .001 -.001 1 0 0 0 0 -1 .001 16 629 1766 631 ?75 632 338 627 0 0 1 31 630
 1798 0 632 627 633 0 +.143 .005 -.001 0 -1 0 0 0 -1 .001 16 632 1763 634 ?635 6
36 629 630 0 0 1 31 633 1797 0 636 630 637 0 +.001 .005 -.001 0 -1 0 0 0 -1 .001
 16 636 1760 638 ?639 640 632 633 0 0 1 31 637 1796 0 640 633 641 0 +.143 .063 -
.001 0 -1 0 0 0 -1 .001 16 640 1757 642 ?643 644 636 637 0 0 1 31 641 1795 0 644
 637 22 0 +.000999999999999983 .063 -.001 0 -1 0 0 0 -1 .001 16 644 1754 645 ?64
6 647 640 641 0 0 1 31 22 1794 0 647 641 8 0 +.139 .067 -.001 1 0 0 0 0 -1 .001
 16 647 1751 648 ?649 21 644 22 0 0 1 81 1 648 1904 32 647 0 0 650 580 651 17 64
9 0 652 653 654 54 655 647 0 0 +16 21 1748 650 ?656 437 647 8 0 0 1 81 1 650 190
3 32 21 0 0 567 648 657 17 656 0 658 659 660 84 661 21 0 0 +15 658 1730 0 656 66
2 0 17 659 0 658 663 656 80 87 581 0 646 -17 660 0 658 656 663 60 67 616 0 0 -17
 661 0 664 665 666 60 656 21 0 660 -15 664 1728 0 655 667 0 17 665 0 664 655 661
 54 63 619 0 649 -17 666 0 664 661 655 84 91 578 0 656 -17 655 0 664 666 665 88
 649 647 0 654 -17 91 0 668 94 87 88 666 578 0 655 +15 668 1590 0 98 669 0 17 94
 0 668 101 91 92 654 575 0 670 +17 87 0 668 91 83 84 659 581 0 666 +17 83 0 668
 87 79 80 671 584 0 659 +17 79 0 668 83 593 76 672 587 0 671 +17 671 0 673 674 6
46 76 83 584 0 639 -15 673 1734 0 646 675 0 17 674 0 673 676 671 68 639 636 0 67
7 -17 646 0 673 671 676 80 663 644 0 0 +17 639 0 678 672 677 76 674 636 0 0 +15
 678 1738 0 639 679 0 17 672 0 678 680 639 72 79 587 0 593 -17 677 0 678 639 680
 68 105 602 0 0 -17 680 0 678 677 672 102 75 629 0 681 -17 105 0 682 218 683 102
 677 602 0 684 +15 682 630 0 683 685 0 17 218 0 682 686 105 215 684 548 0 371 +1
7 683 0 682 105 686 68 222 551 0 674 -17 684 0 687 568 688 102 218 548 0 680 -15
 687 628 0 684 689 0 17 568 0 687 214 684 106 681 554 0 49 +17 688 0 687 684 214
 215 375 372 0 0 -17 214 0 687 688 568 211 49 544 0 375 +17 375 0 690 379 371 21
1 688 372 0 691 +15 690 2323 0 298 692 693 17 379 0 690 383 375 208 691 376 0 69
4 +17 371 0 690 375 695 215 686 368 0 688 +17 691 0 47 49 48 211 379 376 0 0 -15
 47 626 0 49 696 0 17 49 0 47 26 691 106 214 544 0 0 -17 48 0 47 691 26 208 51 5
41 0 379 +17 51 0 697 53 694 31 48 541 0 698 -15 697 648 0 51 699 0 17 53 0 697
 175 51 43 698 27 0 700 +17 694 0 697 51 175 208 383 380 0 0 -17 698 0 701 702 6
43 31 53 27 0 635 -15 701 1736 0 643 703 0 17 702 0 701 704 698 99 635 632 0 705
 -17 643 0 701 698 704 43 670 640 0 0 +17 635 0 706 50 705 31 702 632 0 0 +15 70
6 1740 0 635 707 0 17 50 0 706 708 635 106 26 11 0 568 -17 705 0 706 635 708 99
 98 569 0 0 -17 708 0 706 705 50 95 109 338 0 0 -17 98 0 668 593 101 95 705 569
 0 709 +17 593 0 668 79 98 72 709 590 0 0 +17 101 0 668 98 94 99 704 572 0 702 +
17 709 0 710 109 75 95 593 590 0 708 -15 710 1742 0 75 711 0 17 109 0 710 681 70
9 106 708 338 0 50 +17 75 0 710 709 681 72 680 629 0 672 +17 681 0 710 75 109 10
2 568 554 0 0 -14 255 711 1741 712 ?713 707 710 6 714 +0 0 713 707 24 81 1 712 2
615 715 711 716 0 717 718 719 14 713 1824 718 ?19 711 720 6 20 +0 0 19 711 24 14
 707 1739 717 ?711 679 706 6 721 +0 0 711 679 24 51 255 714 1792 0 711 722 721 0
 +.072 .001 -.001 -1 0 0 .001 0 0 1 13 24 668 0 0 0 0 0 0 10 17 14 17 1242 723 ?
724 0 725 6 726 -0 0 724 0 24 81 1 723 2579 715 17 727 0 0 728 729 14 724 641 72
8 ?685 17 730 6 731 -0 0 685 17 24 15 725 2286 0 732 17 0 50 255 726 1324 0 17 7
33 734 0 +.072 .066 .03 0 1 0 0 0 1 51 733 1325 0 735 736 726 0 -.138 .062 .03 0
 0 -1 .004 -1 0 0 51 734 1323 0 737 726 738 0 -.006 .062 .03 0 0 -1 .004 -1 0 0
 14 737 1238 739 ?735 740 741 6 734 +0 0 735 740 24 50 738 1322 0 740 734 742 0
 +.002 .0538865644407397 .03 -1 -187082652027386e-30 0 187082652027386e-30 -1 0
 14 740 1234 743 ?737 744 745 6 738 -0 0 737 744 24 50 742 1321 0 746 738 747 0
 +.002 .02272428678057135 .03 -1 -1815184182614035e-31 0 1815184182614035e-31 -1
 0 14 746 1279 748 ?749 750 751 6 742 -0 0 749 750 24 51 747 1320 0 752 742 753
 0 -.006 .006 .03 0 0 -1 .004 -1 0 0 14 752 1270 754 ?750 755 756 6 747 +0 0 750
 755 24 50 753 1319 0 755 747 757 0 +.072 .002 .03 0 1 0 0 0 1 14 755 1266 758 ?
752 759 760 6 753 +0 0 752 759 24 51 757 1318 0 759 753 761 0 -.138 .006 .03 0 0
 -1 .004 -1 0 0 14 759 1262 762 ?755 763 764 6 757 +0 0 755 763 24 50 761 1317 0
 763 757 765 0 +.142 .0181688611699158 .03 -1 0 0 0 0 1 14 763 1258 766 ?759 767
 768 6 761 +0 0 759 767 24 51 765 1311 0 767 761 769 0 -.1405 .0335 .03 0 0 -1 .
0035 -1 0 0 14 767 1254 770 ?763 771 772 6 765 -0 0 763 771 24 51 769 1310 0 750
 765 773 0 -.1405 .0335 .03 0 0 -1 .0013 -1 0 0 14 750 1274 774 ?746 752 775 6 7
69 +0 0 746 752 24 51 773 1309 0 744 769 776 0 -.0035 .0426108512213111 .03 0 0
 -1 .0035 -1 0 0 14 744 1230 777 ?740 778 779 6 773 -0 0 740 778 24 51 776 1308
 0 749 773 780 0 -.0035 .0426108512213111 .03 0 0 -1 .0013 -1 0 0 14 749 1283 78
1 ?692 746 782 6 776 +0 0 692 746 24 50 780 3 0 669 776 783 0 +.072 .034 -.002 0
 0 1 1 0 0 14 669 1 784 ?778 785 786 6 780 -0 0 778 785 24 50 783 599 0 778 780
 787 0 +.072 .034 0 0 0 1 1 0 0 14 778 496 788 ?744 669 789 6 783 +790 791 744 6
69 24 51 787 650 0 696 783 792 0 +.139 .005 -.002 0 0 1 .005 1 0 0 14 696 627 79
3 ?699 689 47 6 787 +0 0 699 689 24 50 792 651 0 689 787 794 0 +.072 0 -.002 0 -
1 0 0 0 -1 14 689 629 795 ?696 685 687 6 792 +0 0 696 685 24 51 794 652 0 685 79
2 796 0 +.005 .005 -.002 0 0 1 .005 1 0 0 14 685 631 797 ?689 724 682 6 794 +0 0
 689 724 24 51 796 653 0 785 794 798 0 +.02186136537790295 .0520083654224873 -.0
02 0 0 1 .0085 1 0 0 14 785 633 799 ?669 800 801 6 796 -0 0 669 800 24 51 798 65
4 0 802 796 731 0 +.048861365377903 .0520083654224873 -.002 0 0 1 .0085 1 0 0 14
 802 637 803 ?800 304 804 6 798 -0 0 800 304 24 50 731 655 0 724 798 805 0 +0 .0
528054256106556 -.002 1 0 0 0 0 -1 51 805 656 0 800 731 806 0 +.005 .063 -.002 0
 0 1 .005 1 0 0 14 800 643 807 ?785 802 808 6 805 +0 0 785 802 24 50 806 657 0 3
04 805 809 0 +.072 .068 -.002 0 -1 0 0 0 -1 14 304 645 810 ?802 811 300 6 806 -0
 0 802 811 24 51 809 658 0 811 806 722 0 +.139 .063 -.002 0 0 1 .005 1 0 0 14 81
1 647 812 ?304 699 813 6 809 +0 0 304 699 24 50 722 659 0 699 809 714 0 +.144 .0
4825 -.002 1 0 0 0 0 -1 14 699 649 814 ?811 696 697 6 722 +0 0 811 696 24 81 1 8
14 2584 715 699 815 0 793 812 816 80 255 1 715 0 817 8001 0 0 0 0 3 5 0 0 0 FFFF
TFTFFFFFFF2 81 1 815 1951 32 699 0 814 818 819 820 81 1 793 2583 715 696 821 0 7
95 814 822 81 1 812 2585 715 811 823 0 814 810 824 83 255 3 816 .615686274509804
 .811764705882353 .929411764705882 81 1 823 1955 32 811 0 812 821 267 825 81 1 8
10 2586 715 304 826 0 812 803 827 83 3 824 .615686274509804 .811764705882353 .92
9411764705882 81 1 826 2571 32 304 0 810 727 430 828 81 1 803 2587 715 802 829 0
 810 807 830 83 3 827 .615686274509804 .811764705882353 .929411764705882 81 1 82
9 1947 32 802 0 803 831 832 833 81 1 807 2588 715 800 819 0 803 799 834 83 3 830
 .615686274509804 .811764705882353 .929411764705882 81 1 819 1952 32 800 0 807 8
15 835 836 81 1 799 2589 715 785 831 0 807 784 837 83 3 834 .615686274509804 .81
1764705882353 .929411764705882 81 1 831 1946 32 785 0 799 838 829 839 81 1 784 2
590 715 669 838 0 799 788 840 83 3 837 .615686274509804 .811764705882353 .929411
764705882 81 1 838 1945 32 669 0 784 841 831 842 81 1 788 2591 715 778 843 0 784
 777 844 83 3 840 .615686274509804 .811764705882353 .929411764705882 81 1 843 15
63 32 778 0 788 482 845 846 81 1 777 2592 715 744 847 0 788 743 848 83 3 844 .61
5686274509804 .811764705882353 .929411764705882 81 1 847 1232 32 744 0 777 170 8
49 850 81 1 743 2593 715 740 849 0 777 739 851 83 3 848 .615686274509804 .811764
705882353 .929411764705882 81 1 849 1236 32 740 0 743 847 852 853 81 1 739 2594
 715 737 852 0 743 854 855 83 3 851 .615686274509804 .811764705882353 .929411764
705882 81 1 852 1240 32 737 0 739 849 856 857 81 1 854 2595 715 735 856 0 739 85
8 859 83 3 855 .615686274509804 .811764705882353 .929411764705882 14 735 1246 85
4 ?771 737 860 6 733 +0 0 771 737 24 81 1 856 1248 32 735 0 854 852 861 862 81 1
 858 2596 715 771 861 0 854 770 863 83 3 859 .615686274509804 .811764705882353 .
929411764705882 14 771 1250 858 ?767 735 864 6 736 +0 0 767 735 24 81 1 861 1252
 32 771 0 858 856 865 866 81 1 770 2597 715 767 865 0 858 766 867 83 3 863 .6156
86274509804 .811764705882353 .929411764705882 81 1 865 1256 32 767 0 770 861 868
 869 81 1 766 2598 715 763 868 0 770 762 870 83 3 867 .615686274509804 .81176470
5882353 .929411764705882 81 1 868 1260 32 763 0 766 865 871 872 81 1 762 2599 71
5 759 871 0 766 758 873 83 3 870 .615686274509804 .811764705882353 .929411764705
882 81 1 871 1264 32 759 0 762 868 874 875 81 1 758 2600 715 755 874 0 762 754 8
76 83 3 873 .615686274509804 .811764705882353 .929411764705882 81 1 874 1268 32
 755 0 758 871 877 878 81 1 754 2601 715 752 877 0 758 774 879 83 3 876 .6156862
74509804 .811764705882353 .929411764705882 81 1 877 1272 32 752 0 754 874 880 88
1 81 1 774 2602 715 750 880 0 754 748 882 83 3 879 .615686274509804 .81176470588
2353 .929411764705882 81 1 880 1276 32 750 0 774 877 883 884 81 1 748 2603 715 7
46 883 0 774 781 885 83 3 882 .615686274509804 .811764705882353 .929411764705882
 81 1 883 1281 32 746 0 748 880 886 887 81 1 781 2604 715 749 886 0 748 888 889
 83 3 885 .615686274509804 .811764705882353 .929411764705882 81 1 886 1285 32 74
9 0 781 883 890 891 81 1 888 2605 715 692 892 0 781 893 894 83 3 889 .6156862745
09804 .811764705882353 .929411764705882 14 692 1292 888 ?790 749 690 6 895 +0 0
 790 749 24 81 1 892 2569 32 692 0 888 896 727 897 81 1 893 2606 715 790 898 0 8
88 899 900 83 3 894 .615686274509804 .811764705882353 .929411764705882 14 790 83
7 893 ?791 692 901 6 783 +791 778 791 692 24 81 1 898 1565 32 790 0 893 845 74 9
02 81 1 899 2607 715 791 845 0 893 903 904 83 3 900 .615686274509804 .8117647058
82353 .929411764705882 14 791 790 899 ?667 790 905 6 783 +778 790 667 790 24 81
 1 845 1564 32 791 0 899 843 898 906 81 1 903 2608 715 667 907 0 899 908 909 83
 3 904 .615686274509804 .811764705882353 .929411764705882 14 667 1727 903 ?662 7
91 664 6 910 +0 0 662 791 24 81 1 907 1936 32 667 0 903 716 911 912 81 1 908 260
9 715 662 913 0 903 914 915 83 3 909 .615686274509804 .811764705882353 .92941176
4705882 14 662 1729 908 ?916 667 658 6 917 +0 0 916 667 24 81 1 913 1941 32 662
 0 908 918 919 920 81 1 914 2610 715 916 841 0 908 921 922 83 3 915 .61568627450
9804 .811764705882353 .929411764705882 14 916 1731 914 ?675 662 652 6 923 +0 0 6
75 662 24 81 1 841 1944 32 916 0 914 924 838 925 81 1 921 2611 715 675 911 0 914
 926 927 83 3 922 .615686274509804 .811764705882353 .929411764705882 14 675 1733
 921 ?703 916 673 6 928 +0 0 703 916 24 81 1 911 1937 32 675 0 921 907 929 930 8
1 1 926 2612 715 703 929 0 921 931 932 83 3 927 .615686274509804 .81176470588235
3 .929411764705882 14 703 1735 926 ?679 675 701 6 933 +0 0 679 675 24 81 1 929 1
938 32 703 0 926 911 934 935 81 1 931 2613 715 679 919 0 926 717 936 83 3 932 .6
15686274509804 .811764705882353 .929411764705882 14 679 1737 931 ?707 703 678 6
 937 +0 0 707 703 24 81 1 919 1942 32 679 0 931 913 924 938 81 1 717 2614 715 70
7 924 0 931 712 939 83 3 936 .615686274509804 .811764705882353 .929411764705882
 81 1 924 1943 32 707 0 717 919 841 940 83 3 939 .615686274509804 .8117647058823
53 .929411764705882 80 1 32 941 942 9000 0 0 0 0 3 6 0 0 0 FFTFTFTTFFFFFF1 82 25
5 3 940 9 8 2 79 255 9 942 BTI/DetId82 3 938 9 7 2 54 937 1790 0 679 721 933 0 +
.005 .005 -.001 0 0 1 .004 .001 1 0 0 54 721 1791 0 707 714 937 0 +.139 .005 -.0
01 0 0 1 .004 .001 1 0 0 51 933 1789 0 703 937 928 0 +.143 .04825 -.001 0 -1 0 .
001 0 0 -1 51 928 1788 0 675 933 923 0 +.001 .034 -.001 0 1 0 .001 0 0 1 54 923
 1787 0 916 928 917 0 +.139 .063 -.001 0 0 1 .004 .001 1 0 0 54 917 1786 0 662 9
23 910 0 +.005 .063 -.001 0 0 1 .004 .001 1 0 0 51 910 1785 0 667 917 20 0 +.072
 .067 -.001 1 0 0 .001 0 0 -1 54 20 1831 0 713 910 7 0 +.02186136537790295 .0520
083654224873 -.001 0 0 1 .0095 .001 1 0 0 81 1 934 1939 32 713 0 718 929 918 943
 82 3 935 9 3 2 81 1 718 2616 715 713 934 0 712 944 945 81 1 918 1940 32 19 0 94
4 934 913 946 82 3 943 9 4 2 14 19 1837 944 ?297 713 947 6 7 +0 0 948 713 24 81
 1 944 2617 715 19 918 0 718 949 950 82 3 946 9 5 2 81 1 949 2618 715 297 951 0
 944 952 953 83 3 950 .615686274509804 .811764705882353 .929411764705882 14 297
 2466 949 ?282 19 289 6 954 +0 0 0 282 24 81 1 951 2566 32 297 0 949 955 956 957
 81 1 952 2619 715 282 956 0 949 958 959 83 3 953 .615686274509804 .811764705882
353 .929411764705882 14 282 2470 952 ?960 297 277 6 961 -0 0 297 960 24 81 1 956
 2567 32 282 0 952 951 896 962 81 1 958 2620 715 960 963 0 952 964 965 83 3 959
 .615686274509804 .811764705882353 .929411764705882 14 960 2474 958 ?966 282 967
 6 968 +0 0 282 966 24 81 1 963 2564 32 960 0 958 341 955 969 81 1 964 2621 715
 966 896 0 958 970 971 83 3 965 .615686274509804 .811764705882353 .9294117647058
82 14 966 2478 964 ?948 960 36 6 972 -0 0 960 948 24 81 1 896 2568 32 966 0 964
 956 892 973 81 1 970 2622 715 948 955 0 964 0 974 83 3 971 .615686274509804 .81
1764705882353 .929411764705882 14 948 2482 970 ?0 966 975 6 976 -0 0 966 19 24 8
1 1 955 2565 32 948 0 970 963 951 977 83 3 974 .615686274509804 .811764705882353
 .929411764705882 82 3 977 13 1 2 15 975 2485 0 41 948 0 50 976 2501 0 948 0 972
 0 +.0655844584107399 .065998 .02953619806468485 -1 0 0 0 0 1 51 972 2500 0 966
 976 968 0 +.0675844584107399 .065998 .02907239612936975 0 1 0 .002 0 0 1 50 968
 2499 0 960 972 961 0 +.072 .065998 .02707239612936975 0 0 1 1 0 0 51 961 2498 0
 282 968 954 0 +.0764155415892601 .065998 .02907239612936975 0 1 0 .002 0 0 1 50
 954 2497 0 297 961 895 0 +.0784155415892601 .065998 .02953619806468485 -1 0 0 0
 0 1 50 895 1331 0 692 954 736 0 +.072 .034 .03 0 0 1 1 0 0 50 736 1326 0 771 89
5 733 0 +.142 .0493311388300842 .03 -1 0 0 0 0 1 17 41 0 975 39 239 12 732 335 0
 978 +17 39 0 975 261 41 262 30 40 0 38 +17 239 0 975 41 261 160 327 324 0 732 -
17 732 0 725 979 978 160 41 335 0 414 -17 978 0 725 732 344 12 37 339 0 0 -17 34
4 0 725 978 287 243 253 292 0 0 +17 37 0 36 268 30 243 978 339 0 980 +15 36 2481
 0 37 966 0 17 268 0 36 38 37 265 980 330 0 306 +17 980 0 967 253 306 243 268 33
0 0 344 -15 967 2477 0 272 960 0 17 253 0 967 272 980 250 344 292 0 283 -17 306
 0 967 980 272 265 286 307 0 305 -17 272 0 967 306 253 269 283 293 0 278 +17 305
 0 300 286 981 265 38 314 0 0 -17 981 0 300 305 431 262 261 319 0 0 -17 38 0 36
 30 268 262 305 314 0 981 +17 431 0 300 981 167 258 982 428 0 0 +17 261 0 975 23
9 39 258 981 319 0 327 +17 327 0 690 982 414 258 239 324 0 431 +17 982 0 690 435
 327 164 431 428 0 0 -17 414 0 690 327 983 160 979 411 0 0 +17 983 0 690 414 191
 184 409 406 0 0 -17 979 0 725 497 732 184 414 411 0 983 -17 497 0 725 479 979 1
46 187 494 0 984 +17 479 0 725 985 497 142 149 476 0 0 +17 187 0 741 409 984 184
 497 494 0 979 -17 984 0 741 187 501 146 158 473 0 0 -15 741 1241 0 984 737 0 17
 501 0 741 984 409 155 986 498 0 472 +17 158 0 789 153 149 155 984 473 0 501 +15
 789 830 0 113 778 987 17 153 0 789 113 158 150 472 469 0 528 -17 149 0 789 158
 145 146 479 476 0 497 -17 145 0 789 149 141 142 988 480 0 493 +17 141 0 789 145
 137 138 989 353 0 488 +17 988 0 860 179 493 138 145 480 0 0 -17 493 0 860 988 4
18 142 985 489 0 479 +15 860 1249 0 988 735 0 17 418 0 860 493 179 180 990 415 0
 0 +17 985 0 725 991 479 180 493 489 0 418 -17 991 0 725 290 985 240 183 410 0 0
 -17 290 0 725 287 991 246 242 345 0 0 +17 183 0 690 990 298 180 991 410 0 985 +
16 410 2265 992 ?183 411 406 407 411 411 1 81 1 992 2575 32 410 0 0 413 0 993 81
 1 413 2574 32 411 0 0 994 992 995 82 3 993 13 19 1 81 1 994 2573 32 427 0 0 430
 413 996 82 3 995 13 18 1 16 427 2296 994 ?171 428 423 424 428 428 1 81 1 430 25
72 32 428 0 0 826 994 997 82 3 996 13 17 1 82 3 997 13 16 1 17 171 0 300 998 295
 168 301 427 0 563 +17 998 0 300 63 171 54 563 560 0 665 -17 301 0 690 298 426 2
54 171 427 0 0 -17 563 0 813 999 59 168 998 560 0 426 +15 813 646 0 700 811 0 17
 999 0 813 700 563 172 426 423 0 0 -17 59 0 813 563 700 54 653 622 0 998 +17 426
 0 690 301 383 168 999 423 0 0 +17 383 0 690 426 379 172 694 380 0 999 +17 700 0
 813 59 999 43 175 545 0 653 -17 653 0 652 670 649 43 59 622 0 643 -15 652 1732
 0 649 916 0 17 670 0 652 654 653 92 643 640 0 704 -17 654 0 652 649 670 88 94 5
75 0 0 -17 704 0 701 643 702 92 101 572 0 0 -17 175 0 697 694 53 172 700 545 0 3
83 +17 298 0 690 183 301 240 257 299 0 991 -17 63 0 300 167 998 60 665 619 0 100
0 +17 167 0 300 431 63 164 1000 557 0 1001 +17 1000 0 808 67 1001 60 167 557 0 6
61 -15 808 642 0 1000 800 0 17 67 0 808 163 1000 64 660 616 0 1002 +17 1001 0 80
8 1000 163 164 435 432 0 982 -17 163 0 808 1001 67 154 1002 540 0 435 +17 435 0
 690 695 982 154 1001 432 0 367 +17 695 0 690 371 435 219 367 364 0 0 -17 367 0
 730 1002 222 154 695 364 0 0 +15 730 640 0 1002 724 0 17 1002 0 730 71 367 64 1
63 540 0 663 -17 222 0 730 367 71 219 683 551 0 686 +17 71 0 730 222 1002 68 676
 613 0 683 +17 686 0 682 683 218 219 371 368 0 695 -17 676 0 673 646 674 64 71 6
13 0 0 -17 663 0 658 660 659 64 646 644 0 676 -17 990 0 690 1003 183 176 418 415
 0 422 -17 1003 0 690 230 990 223 422 419 0 0 -17 422 0 864 488 226 176 1003 419
 0 0 +15 864 1253 0 989 771 0 17 488 0 864 989 422 138 179 485 0 988 +17 226 0 8
64 422 989 223 522 490 0 1004 -17 989 0 864 226 488 134 141 353 0 0 -17 522 0 77
2 452 1004 134 226 490 0 989 +17 1004 0 772 522 1005 223 230 361 0 1003 -15 772
 1257 0 452 767 0 17 1005 0 772 1004 452 227 525 519 0 387 -17 230 0 690 1006 10
03 227 1004 361 0 1005 +17 1006 0 690 1007 230 204 387 384 0 391 -17 1007 0 690
 1008 1006 200 391 388 0 395 -17 387 0 768 525 207 227 1006 384 0 0 +17 391 0 76
4 518 203 204 1007 388 0 0 +15 764 1265 0 1009 759 0 17 518 0 764 1009 391 126 2
07 515 0 1010 +17 203 0 764 391 1009 200 514 511 0 1007 -17 1009 0 764 203 518 1
22 129 456 0 0 -17 514 0 760 1011 395 122 203 511 0 1009 +15 760 1269 0 1011 755
 0 17 1011 0 760 199 514 118 125 459 0 0 -17 395 0 760 514 199 200 1008 392 0 0
 +17 199 0 760 395 1011 196 510 507 0 1008 -17 1008 0 690 1012 1007 196 395 392
 0 399 -17 1012 0 690 237 1008 192 399 396 0 0 -17 399 0 756 510 195 196 1012 39
6 0 0 +15 756 1273 0 1013 752 0 17 510 0 756 1013 399 118 199 507 0 1011 +17 195
 0 756 399 1013 192 506 503 0 1014 -17 1013 0 756 195 510 114 121 462 0 0 -17 50
6 0 751 468 1014 114 195 503 0 1013 +17 1014 0 751 506 1015 192 237 400 0 1012 -
15 751 1282 0 468 746 0 17 1015 0 751 1014 468 159 532 436 0 1016 -17 237 0 690
 356 1012 159 1014 400 0 1015 +17 356 0 690 191 237 231 1016 352 0 1017 +17 191
 0 690 983 356 188 234 403 0 986 +17 1016 0 779 532 1017 159 356 352 0 0 -17 101
7 0 779 1016 444 231 528 502 0 0 -15 779 1233 0 444 744 0 17 444 0 779 1017 532
 150 113 441 0 0 +17 528 0 745 472 234 150 1017 502 0 444 +15 745 1237 0 472 740
 0 17 472 0 745 986 528 155 153 469 0 0 +17 234 0 745 528 986 231 191 403 0 356
 -17 986 0 745 234 472 188 501 498 0 409 -17 409 0 741 501 187 188 983 406 0 0 +
17 532 0 779 444 1016 110 1015 436 0 0 +17 113 0 789 117 153 110 444 441 0 468 -
17 117 0 789 121 113 114 468 465 0 506 -17 468 0 751 1015 506 110 117 465 0 532
 +17 121 0 789 125 117 118 1013 462 0 510 +17 125 0 789 129 121 122 1011 459 0 5
14 +17 129 0 789 133 125 126 1009 456 0 518 +17 133 0 789 137 129 130 1010 453 0
 525 +17 137 0 789 141 133 134 452 449 0 522 -17 1010 0 768 207 525 126 133 453
 0 0 -17 525 0 768 1010 387 130 1005 519 0 452 +15 768 1261 0 1010 763 0 17 452
 0 772 1005 522 130 137 449 0 0 +17 207 0 768 387 1010 204 518 515 0 1006 -17 17
9 0 860 418 988 176 488 485 0 990 -17 287 0 725 344 290 250 249 288 0 0 -17 242
 0 289 257 279 240 290 345 0 298 -15 987 521 0 1018 778 1019 17 1018 0 987 1018
 1018 0 535 529 0 0 -15 1019 522 0 1020 778 0 17 1020 0 1019 1020 1020 0 539 536
 0 0 -17 539 0 1021 539 539 0 1020 536 0 0 +15 1021 634 0 539 785 0 17 535 0 102
2 535 535 0 1018 529 0 0 +15 1022 638 0 535 802 0 17 283 0 277 249 278 250 272 2
93 0 287 -82 3 973 13 4 2 81 1 341 2563 32 339 0 0 318 963 1023 82 3 969 13 0 2
 81 1 318 2562 32 314 0 0 311 341 1024 82 3 1023 13 15 1 81 1 311 2561 32 288 0
 0 308 318 1025 82 3 1024 13 14 1 82 3 1025 13 13 1 82 3 962 13 3 2 82 3 957 13
 2 2 15 947 1838 0 1026 19 1027 17 1026 0 947 1026 1026 0 612 609 0 0 -15 1027 1
839 0 1028 19 0 17 1028 0 1027 1028 1028 0 597 594 0 0 -17 597 0 1029 597 597 0
 1028 594 0 0 +15 1029 1626 0 597 669 668 17 612 0 804 612 612 0 1026 609 0 0 +1
5 804 1653 0 612 802 1022 83 3 945 .615686274509804 .811764705882353 .9294117647
05882 82 3 930 9 2 2 82 3 925 9 9 2 82 3 920 9 6 2 81 1 716 1935 32 711 0 712 56
5 907 1030 82 3 912 9 1 2 81 1 565 1934 32 545 0 0 543 716 1031 82 3 1030 9 0 2
 81 1 543 1933 32 541 0 0 556 565 1032 82 3 1031 9 35 1 81 1 556 1932 32 540 0 0
 553 543 1033 82 3 1032 9 34 1 81 1 553 1931 32 551 0 0 562 556 1034 82 3 1033 9
 33 1 81 1 562 1930 32 560 0 0 559 553 1035 82 3 1034 9 32 1 81 1 559 1929 32 55
7 0 0 547 562 1036 82 3 1035 9 31 1 81 1 547 1928 32 544 0 0 550 559 1037 82 3 1
036 9 30 1 81 1 550 1927 32 548 0 0 624 547 1038 82 3 1037 9 29 1 81 1 624 1926
 32 622 0 0 577 550 1039 82 3 1038 9 28 1 81 1 577 1925 32 575 0 0 25 624 1040 8
2 3 1039 9 27 1 81 1 25 1924 32 11 0 0 571 577 1041 82 3 1040 9 26 1 81 1 571 19
23 32 569 0 0 604 25 1042 82 3 1041 9 25 1 81 1 604 1922 32 602 0 0 589 571 1043
 82 3 1042 9 24 1 81 1 589 1921 32 587 0 0 618 604 1044 82 3 1043 9 23 1 81 1 61
8 1920 32 616 0 0 583 589 1045 82 3 1044 9 22 1 81 1 583 1919 32 581 0 0 611 618
 1046 82 3 1045 9 21 1 81 1 611 1918 32 609 0 0 596 583 1047 82 3 1046 9 20 1 81
 1 596 1917 32 594 0 0 607 611 1048 82 3 1047 9 19 1 81 1 607 1916 32 605 0 0 60
0 596 1049 82 3 1048 9 18 1 81 1 600 1915 32 598 0 0 625 607 1050 82 3 1049 9 17
 1 81 1 625 1914 32 27 0 0 574 600 1051 82 3 1050 9 16 1 81 1 574 1913 32 572 0
 0 642 625 1052 82 3 1051 9 15 1 81 1 642 1912 32 640 0 0 634 574 1053 82 3 1052
 9 14 1 81 1 634 1911 32 632 0 0 615 642 1054 82 3 1053 9 13 1 81 1 615 1910 32
 613 0 0 586 634 1055 82 3 1054 9 12 1 81 1 586 1909 32 584 0 0 638 615 1056 82
 3 1055 9 11 1 81 1 638 1908 32 636 0 0 645 586 1057 82 3 1056 9 10 1 81 1 645 1
907 32 644 0 0 621 638 1058 82 3 1057 9 9 1 81 1 621 1906 32 619 0 0 580 645 105
9 82 3 1058 9 8 1 81 1 580 1905 32 578 0 0 648 621 1060 82 3 1059 9 7 1 82 3 106
0 9 6 1 82 3 906 8 9 2 15 905 788 0 448 791 0 17 448 0 905 448 448 0 1061 445 0
 0 +17 1061 0 1062 1061 1061 0 448 445 0 0 -15 1062 1278 0 1061 750 0 81 1 74 18
83 32 72 0 0 898 104 1063 82 3 902 8 10 2 81 1 104 1884 32 102 0 0 74 97 1064 82
 3 1063 9 0 0 81 1 97 1885 32 95 0 0 104 108 1065 82 3 1064 9 1 0 81 1 108 1886
 32 106 0 0 97 86 1066 82 3 1065 9 2 0 81 1 86 1887 32 84 0 0 108 62 1067 82 3 1
066 9 3 0 81 1 62 1888 32 60 0 0 86 90 1068 82 3 1067 9 4 0 81 1 90 1889 32 88 0
 0 62 58 1069 82 3 1068 9 5 0 81 1 58 1890 32 54 0 0 90 82 1070 82 3 1069 9 6 0
 81 1 82 1891 32 80 0 0 58 66 1071 82 3 1070 9 7 0 81 1 66 1892 32 64 0 0 82 78
 1072 82 3 1071 9 8 0 81 1 78 1893 32 76 0 0 66 70 1073 82 3 1072 9 9 0 81 1 70
 1894 32 68 0 0 78 44 1074 82 3 1073 9 10 0 81 1 44 1895 32 99 0 0 70 42 1075 82
 3 1074 9 11 0 82 3 1075 9 12 0 15 901 835 0 440 790 0 17 440 0 901 440 440 0 10
76 437 0 0 +17 1076 0 1077 1076 1076 0 440 437 0 0 -15 1077 1287 0 1076 749 0 81
 1 727 2570 32 17 0 723 892 826 1078 82 3 897 13 5 2 82 3 1078 13 6 2 81 1 890 1
520 32 1 0 1079 886 136 1080 82 3 891 7 15 2 81 1 1079 2576 1081 1 890 14 0 0 10
82 81 1 136 1521 32 134 0 0 890 120 1083 82 3 1080 6 0 3 81 1 120 1522 32 118 0
 0 136 124 1084 82 3 1083 8 0 0 81 1 124 1523 32 122 0 0 120 116 1085 82 3 1084
 8 1 0 81 1 116 1524 32 114 0 0 124 152 1086 82 3 1085 8 2 0 81 1 152 1525 32 15
0 0 0 116 148 1087 82 3 1086 8 3 0 81 1 148 1526 32 146 0 0 152 144 1088 82 3 10
87 8 4 0 81 1 144 1527 32 142 0 0 148 157 1089 82 3 1088 8 5 0 81 1 157 1528 32
 155 0 0 144 128 1090 82 3 1089 8 6 0 81 1 128 1529 32 126 0 0 157 140 1091 82 3
 1090 8 7 0 81 1 140 1530 32 138 0 0 128 132 1092 82 3 1091 8 8 0 81 1 132 1531
 32 130 0 0 140 112 1093 82 3 1092 8 9 0 81 1 112 1532 32 110 0 0 132 484 1094 8
2 3 1093 8 10 0 81 1 484 1541 32 353 0 0 112 455 1095 82 3 1094 8 11 0 81 1 455
 1542 32 453 0 0 484 461 1096 82 3 1095 8 8 1 81 1 461 1543 32 459 0 0 455 467 1
097 82 3 1096 8 9 1 81 1 467 1544 32 465 0 0 461 471 1098 82 3 1097 8 10 1 81 1
 471 1545 32 469 0 0 467 478 1099 82 3 1098 8 11 1 81 1 478 1546 32 476 0 0 471
 443 1100 82 3 1099 8 12 1 81 1 443 1547 32 441 0 0 478 451 1101 82 3 1100 8 13
 1 81 1 451 1548 32 449 0 0 443 447 1102 82 3 1101 8 14 1 81 1 447 1549 32 445 0
 0 451 439 1103 82 3 1102 8 15 1 81 1 439 1550 32 437 0 0 447 475 1104 82 3 1103
 8 16 1 81 1 475 1551 32 473 0 0 439 464 1105 82 3 1104 8 17 1 81 1 464 1552 32
 462 0 0 475 458 1106 82 3 1105 8 18 1 81 1 458 1553 32 456 0 0 464 482 1107 82
 3 1106 8 19 1 81 1 482 1554 32 480 0 0 458 843 1108 82 3 1107 8 20 1 82 3 1108
 8 21 1 80 1 1081 1109 1110 8038 0 0 0 0 0 0 0 0 0 TTTTTTTTTTTTTF10 81 1 14 2577
 1109 1 1079 2 0 0 1111 98 255 5 1082 102 114 111 110 116 80 1 1109 1112 1113 80
17 0 0 0 0 0 0 0 0 0 TTTTTTTTTTTTTF3 84 255 5 1111 front79 13 1113 SDL/TYSA_NAME
79 14 1110 SDL/TYSA_UNAME82 3 887 7 9 2 82 3 884 7 14 2 82 3 881 7 21 2 82 3 878
 7 8 2 82 3 875 7 22 2 82 3 872 7 7 2 82 3 869 7 13 2 82 3 866 7 6 2 82 3 862 7
 23 2 82 3 857 7 20 2 82 3 853 7 10 2 81 1 170 1199 32 168 0 0 174 847 1114 82 3
 850 7 12 2 81 1 174 1197 32 172 0 0 210 170 1115 82 3 1114 7 7 0 81 1 210 1195
 32 208 0 0 213 174 1116 82 3 1115 7 29 0 81 1 213 1193 32 211 0 0 217 210 1117
 82 3 1116 7 27 0 81 1 217 1191 32 215 0 0 162 213 1118 82 3 1117 7 3 0 81 1 162
 1189 32 154 0 0 236 217 1119 82 3 1118 7 1 0 81 1 236 1187 32 159 0 0 229 162 1
120 82 3 1119 7 11 0 81 1 229 1185 32 227 0 0 182 236 1121 82 3 1120 7 39 0 81 1
 182 1183 32 180 0 0 190 229 1122 82 3 1121 7 37 0 81 1 190 1181 32 188 0 0 166
 182 1123 82 3 1122 7 25 0 81 1 166 1177 32 164 0 0 194 190 1124 82 3 1123 7 31
 0 81 1 194 1169 32 192 0 0 198 166 1125 82 3 1124 7 5 0 81 1 198 1165 32 196 0
 0 202 194 1126 82 3 1125 7 19 0 81 1 202 1161 32 200 0 0 206 198 1127 82 3 1126
 7 15 0 81 1 206 1157 32 204 0 0 225 202 1128 82 3 1127 7 17 0 81 1 225 1151 32
 223 0 0 178 206 1129 82 3 1128 7 33 0 81 1 178 1147 32 176 0 0 186 225 1130 82
 3 1129 7 13 0 81 1 186 1141 32 184 0 0 233 178 1131 82 3 1130 7 35 0 81 1 233 1
139 32 231 0 0 221 186 1132 82 3 1131 7 23 0 81 1 221 1125 32 219 0 0 425 233 11
33 82 3 1132 7 21 0 81 1 425 1066 32 423 0 0 382 221 1134 82 3 1133 7 9 0 81 1 3
82 1063 32 380 0 0 378 425 1135 82 3 1134 7 55 1 81 1 378 1060 32 376 0 0 374 38
2 1136 82 3 1135 7 27 1 81 1 374 1057 32 372 0 0 370 378 1137 82 3 1136 7 53 1 8
1 1 370 1054 32 368 0 0 434 374 1138 82 3 1137 7 21 1 81 1 434 1051 32 432 0 0 4
02 370 1139 82 3 1138 7 51 1 81 1 402 1048 32 400 0 0 363 434 1140 82 3 1139 7 4
9 1 81 1 363 1045 32 361 0 0 405 402 1141 82 3 1140 7 35 1 81 1 405 1039 32 403
 0 0 355 363 1142 82 3 1141 7 43 1 81 1 355 1036 32 352 0 0 350 405 1143 82 3 11
42 7 37 1 81 1 350 1027 32 348 0 0 505 355 1144 82 3 1143 7 41 1 81 1 505 1024 3
2 503 0 0 359 350 1145 82 3 1144 7 47 1 81 1 359 1016 32 357 0 0 509 505 1146 82
 3 1145 7 9 1 81 1 509 1013 32 507 0 0 398 359 1147 82 3 1146 7 45 1 81 1 398 10
10 32 396 0 0 513 509 1148 82 3 1147 7 7 1 81 1 513 1007 32 511 0 0 394 398 1149
 82 3 1148 7 59 1 81 1 394 1004 32 392 0 0 517 513 1150 82 3 1149 7 8 1 81 1 517
 1001 32 515 0 0 390 394 1151 82 3 1150 7 33 1 81 1 390 998 32 388 0 0 524 517 1
152 82 3 1151 7 16 1 81 1 524 995 32 519 0 0 386 390 1153 82 3 1152 7 61 1 81 1
 386 992 32 384 0 0 521 524 1154 82 3 1153 7 18 1 81 1 521 989 32 490 0 0 487 38
6 1155 82 3 1154 7 31 1 81 1 487 981 32 485 0 0 421 521 1156 82 3 1155 7 6 1 81
 1 421 978 32 419 0 0 492 487 1157 82 3 1156 7 17 1 81 1 492 975 32 489 0 0 417
 421 1158 82 3 1157 7 29 1 81 1 417 972 32 415 0 0 496 492 1159 82 3 1158 7 12 1
 81 1 496 969 32 494 0 0 500 417 1160 82 3 1159 7 63 1 81 1 500 961 32 498 0 0 4
08 496 1161 82 3 1160 7 11 1 81 1 408 958 32 406 0 0 527 500 1162 82 3 1161 7 15
 1 81 1 527 955 32 502 0 0 531 408 1163 82 3 1162 7 57 1 81 1 531 947 32 436 0 0
 366 527 1164 82 3 1163 7 10 1 81 1 366 896 32 364 0 0 534 531 1165 82 3 1164 7
 19 1 81 1 534 735 32 529 0 0 538 366 1166 82 3 1165 7 25 1 81 1 538 733 32 536
 0 0 0 534 1167 82 3 1166 6 18 1 82 3 1167 6 16 1 82 3 846 8 8 2 82 3 842 9 10 2
 82 3 839 9 11 2 81 1 835 1953 32 685 0 797 819 821 1168 82 3 836 9 17 2 81 1 79
7 2581 715 685 835 0 728 795 1169 81 1 821 1954 32 696 0 793 835 823 1170 82 3 1
168 9 18 2 82 3 1170 9 19 2 81 1 728 2580 715 724 818 0 723 797 1171 81 1 795 25
82 715 689 832 0 797 793 1172 83 3 1169 .615686274509804 .811764705882353 .92941
1764705882 81 1 832 1948 32 689 0 795 829 818 1173 83 3 1172 .615686274509804 .8
11764705882353 .929411764705882 81 1 818 1950 32 724 0 728 832 815 1174 82 3 117
3 9 13 2 82 3 1174 9 15 2 83 3 1171 .615686274509804 .811764705882353 .929411764
705882 82 3 833 9 12 2 82 3 828 13 7 2 81 1 267 2536 32 265 0 0 823 271 1175 82
 3 825 9 20 2 81 1 271 2537 32 269 0 0 267 264 1176 82 3 1175 13 0 0 81 1 264 25
38 32 262 0 0 271 260 1177 82 3 1176 13 1 0 81 1 260 2539 32 258 0 0 264 274 117
8 82 3 1177 13 2 0 82 3 1178 13 3 0 83 3 822 .615686274509804 .811764705882353 .
929411764705882 82 3 820 9 16 2 79 15 817 SDL/TYSA_COLOUR15 801 1647 0 608 785 1
021 17 608 0 801 608 608 0 1179 605 0 0 +17 1179 0 720 1179 1179 0 608 605 0 0 -
15 720 1825 0 1179 713 1180 15 1180 1826 0 1181 713 0 17 1181 0 1180 1181 1181 0
 601 598 0 0 -17 601 0 786 601 601 0 1181 598 0 0 +15 786 1632 0 601 669 1029 15
 782 1286 0 351 749 1077 17 351 0 782 351 351 0 1182 348 0 0 +17 1182 0 693 1182
 1182 0 351 348 0 0 -15 693 1295 0 1182 692 1183 15 1183 1297 0 1184 692 0 17 11
84 0 1183 1184 1184 0 360 357 0 0 -17 360 0 775 360 360 0 1184 357 0 0 +15 775 1
277 0 360 750 1062 83 3 729 .615686274509804 .811764705882353 .929411764705882 8
3 3 719 .615686274509804 .811764705882353 .929411764705882 81 1 567 1902 32 554
 0 0 592 650 1185 82 3 657 9 4 1 81 1 592 1901 32 590 0 0 628 567 1186 82 3 1185
 9 3 1 81 1 628 1900 32 338 0 0 631 592 1187 82 3 1186 9 2 1 81 1 631 1899 32 62
9 0 0 52 628 1188 82 3 1187 9 1 1 81 1 52 1898 32 43 0 0 45 631 1189 82 3 1188 9
 0 1 81 1 45 1897 32 92 0 0 42 52 1190 82 3 1189 9 15 0 82 3 1190 9 14 0 82 3 65
1 9 5 1 81 1 310 2559 32 345 0 0 302 308 1191 81 1 302 2558 32 296 0 0 337 310 1
192 82 3 1191 13 11 1 81 1 337 2557 32 335 0 0 321 302 1193 82 3 1192 13 10 1 81
 1 321 2556 32 319 0 0 343 337 1194 82 3 1193 13 9 1 81 1 343 2555 32 292 0 0 31
3 321 1195 82 3 1194 13 8 1 81 1 313 2554 32 307 0 0 323 343 1196 82 3 1195 13 7
 1 81 1 323 2553 32 299 0 0 291 313 1197 82 3 1196 13 6 1 81 1 291 2552 32 280 0
 0 326 323 1198 82 3 1197 13 5 1 81 1 326 2551 32 324 0 0 329 291 1199 82 3 1198
 13 4 1 81 1 329 2550 32 40 0 0 333 326 1200 82 3 1199 13 3 1 81 1 333 2549 32 2
93 0 0 332 329 1201 82 3 1200 13 2 1 81 1 332 2548 32 330 0 0 248 333 1202 82 3
 1201 13 1 1 81 1 248 2547 32 246 0 0 34 332 1203 82 3 1202 13 0 1 81 1 34 2546
 32 240 0 0 29 248 1204 82 3 1203 13 11 0 82 3 1204 13 10 0 82 3 312 13 12 1 81
 1 256 2541 32 254 0 0 274 252 1205 82 3 276 13 4 0 81 1 252 2542 32 250 0 0 256
 245 1206 82 3 1205 13 5 0 81 1 245 2543 32 243 0 0 252 33 1207 82 3 1206 13 6 0
 81 1 33 2544 32 160 0 0 245 29 1208 82 3 1207 13 7 0 82 3 1208 13 8 0 82 3 46 9
 13 0 82 3 35 13 9 0 19 18 669 0 1 0 10 6 S0 74 4 CI16 index_map_offset0 0 1 dCC
Z20 16 5 0 0 992 1079 14 2 970 0 0 0 0 0 0 0 0 0 0 0 0 0 0 0 80 1 13 715 1209 80
40 0 0 0 0 3 5 0 0 0 TTTFFFFFFFFFFF2 83 3 15 .615686274509804 .811764705882353 .
929411764705882 79 17 1209 SDL/TYSA_COLOUR_21 0 
